<mxfile host="app.diagrams.net" modified="2022-04-17T20:16:50.060Z" agent="5.0 (Windows NT 10.0; Win64; x64) AppleWebKit/537.36 (KHTML, like Gecko) Chrome/100.0.4896.88 Safari/537.36" etag="_Dcj19qA-l2__6qLmIKs" version="17.4.5" type="github">
  <diagram id="OcSegQ6KyDxO42YwwF9W" name="Page-1">
    <mxGraphModel dx="1673" dy="934" grid="1" gridSize="10" guides="1" tooltips="1" connect="1" arrows="1" fold="1" page="1" pageScale="1" pageWidth="850" pageHeight="1100" math="0" shadow="0">
      <root>
        <mxCell id="0" />
        <mxCell id="1" parent="0" />
        <mxCell id="6krmBzTeddaULIfoAdEm-4" value="" style="verticalLabelPosition=bottom;html=1;verticalAlign=top;align=center;shape=mxgraph.floorplan.wallCorner;fillColor=#000000;direction=west" vertex="1" parent="1">
          <mxGeometry x="703" y="620" width="100" height="100" as="geometry" />
        </mxCell>
        <mxCell id="6krmBzTeddaULIfoAdEm-5" value="" style="verticalLabelPosition=bottom;html=1;verticalAlign=top;align=center;shape=mxgraph.floorplan.doorPocket;dx=0.5;rotation=-90;" vertex="1" parent="1">
          <mxGeometry x="746" y="510" width="104" height="10" as="geometry" />
        </mxCell>
        <mxCell id="6krmBzTeddaULIfoAdEm-6" value="" style="verticalLabelPosition=bottom;html=1;verticalAlign=top;align=center;shape=mxgraph.floorplan.wall;fillColor=#000000;direction=south;" vertex="1" parent="1">
          <mxGeometry x="796.12" y="190" width="10" height="270" as="geometry" />
        </mxCell>
        <mxCell id="6krmBzTeddaULIfoAdEm-7" value="" style="verticalLabelPosition=bottom;html=1;verticalAlign=top;align=center;shape=mxgraph.floorplan.wallCorner;fillColor=#000000;" vertex="1" parent="1">
          <mxGeometry x="46.12" y="90" width="100" height="100" as="geometry" />
        </mxCell>
        <mxCell id="6krmBzTeddaULIfoAdEm-8" value="" style="verticalLabelPosition=bottom;html=1;verticalAlign=top;align=center;shape=mxgraph.floorplan.wall;fillColor=#000000;direction=south;" vertex="1" parent="1">
          <mxGeometry x="46.12" y="190" width="10" height="100" as="geometry" />
        </mxCell>
        <mxCell id="6krmBzTeddaULIfoAdEm-9" value="" style="verticalLabelPosition=bottom;html=1;verticalAlign=top;align=center;shape=mxgraph.floorplan.window;rotation=-90;metaEdit=0;" vertex="1" parent="1">
          <mxGeometry x="-47.00000000000001" y="384.13" width="196.25" height="10" as="geometry" />
        </mxCell>
        <mxCell id="6krmBzTeddaULIfoAdEm-10" value="" style="verticalLabelPosition=bottom;html=1;verticalAlign=top;align=center;shape=mxgraph.floorplan.wall;fillColor=#000000;direction=south;" vertex="1" parent="1">
          <mxGeometry x="46.12" y="490" width="10" height="400" as="geometry" />
        </mxCell>
        <mxCell id="6krmBzTeddaULIfoAdEm-11" value="" style="verticalLabelPosition=bottom;html=1;verticalAlign=top;align=center;shape=mxgraph.floorplan.doorLeft;aspect=fixed;" vertex="1" parent="1">
          <mxGeometry x="46.12" y="890" width="80" height="85" as="geometry" />
        </mxCell>
        <mxCell id="6krmBzTeddaULIfoAdEm-12" value="" style="verticalLabelPosition=bottom;html=1;verticalAlign=top;align=center;shape=mxgraph.floorplan.wall;fillColor=#000000;" vertex="1" parent="1">
          <mxGeometry x="146.12" y="90" width="559" height="10" as="geometry" />
        </mxCell>
        <mxCell id="6krmBzTeddaULIfoAdEm-13" value="" style="verticalLabelPosition=bottom;html=1;verticalAlign=top;align=center;shape=mxgraph.floorplan.wall;fillColor=#000000;" vertex="1" parent="1">
          <mxGeometry x="126.12" y="890" width="480" height="10" as="geometry" />
        </mxCell>
        <mxCell id="6krmBzTeddaULIfoAdEm-14" value="" style="verticalLabelPosition=bottom;html=1;verticalAlign=top;align=center;shape=mxgraph.floorplan.wallCorner;fillColor=#000000;direction=west" vertex="1" parent="1">
          <mxGeometry x="606.12" y="800" width="100" height="100" as="geometry" />
        </mxCell>
        <mxCell id="6krmBzTeddaULIfoAdEm-15" value="" style="verticalLabelPosition=bottom;html=1;verticalAlign=top;align=center;shape=mxgraph.floorplan.wallCorner;fillColor=#000000;direction=south;" vertex="1" parent="1">
          <mxGeometry x="706.12" y="90" width="100" height="100" as="geometry" />
        </mxCell>
        <mxCell id="6krmBzTeddaULIfoAdEm-16" value="163 &quot;" style="shape=dimension;whiteSpace=wrap;html=1;align=center;points=[];verticalAlign=bottom;spacingBottom=-5;labelBackgroundColor=#ffffff" vertex="1" parent="1">
          <mxGeometry x="56.12" y="40" width="740" height="40" as="geometry" />
        </mxCell>
        <mxCell id="6krmBzTeddaULIfoAdEm-17" value="188 &quot;" style="shape=dimension;direction=south;whiteSpace=wrap;html=1;align=left;points=[];verticalAlign=middle;labelBackgroundColor=#ffffff" vertex="1" parent="1">
          <mxGeometry x="6.12" y="100" width="40" height="790" as="geometry" />
        </mxCell>
        <mxCell id="6krmBzTeddaULIfoAdEm-18" value="125 &quot;" style="shape=dimension;whiteSpace=wrap;html=1;align=center;points=[];verticalAlign=bottom;spacingBottom=-5;labelBackgroundColor=#ffffff" vertex="1" parent="1">
          <mxGeometry x="56.12" y="912.5" width="640.5" height="40" as="geometry" />
        </mxCell>
        <mxCell id="6krmBzTeddaULIfoAdEm-19" value="" style="verticalLabelPosition=bottom;html=1;verticalAlign=top;align=center;shape=mxgraph.floorplan.wall;fillColor=#000000;direction=south;" vertex="1" parent="1">
          <mxGeometry x="793" y="570" width="10" height="50" as="geometry" />
        </mxCell>
        <mxCell id="6krmBzTeddaULIfoAdEm-20" value="" style="verticalLabelPosition=bottom;html=1;verticalAlign=top;align=center;shape=mxgraph.floorplan.wall;fillColor=#000000;direction=south;" vertex="1" parent="1">
          <mxGeometry x="696.12" y="710" width="10" height="90" as="geometry" />
        </mxCell>
        <mxCell id="6krmBzTeddaULIfoAdEm-21" value="64 &quot;" style="shape=dimension;direction=south;whiteSpace=wrap;html=1;align=left;points=[];verticalAlign=middle;labelBackgroundColor=#ffffff" vertex="1" parent="1">
          <mxGeometry x="720" y="720" width="40" height="170" as="geometry" />
        </mxCell>
        <mxCell id="6krmBzTeddaULIfoAdEm-22" value="38 &quot;" style="shape=dimension;whiteSpace=wrap;html=1;align=center;points=[];verticalAlign=bottom;spacingBottom=-5;labelBackgroundColor=#ffffff" vertex="1" parent="1">
          <mxGeometry x="709.12" y="660" width="83.88" height="40" as="geometry" />
        </mxCell>
        <mxCell id="6krmBzTeddaULIfoAdEm-23" value="124 &quot;" style="shape=dimension;direction=south;whiteSpace=wrap;html=1;align=left;points=[];verticalAlign=middle;labelBackgroundColor=#ffffff" vertex="1" parent="1">
          <mxGeometry x="806.12" y="100" width="40" height="610" as="geometry" />
        </mxCell>
      </root>
    </mxGraphModel>
  </diagram>
</mxfile>
